<?xml version="1.0"?><svg xmlns="http://www.w3.org/2000/svg"  viewBox="0 0 50 50" width="20px" height="20px">    <path d="M 9 4 C 6.2504839 4 4 6.2504839 4 9 L 4 41 C 4 43.749516 6.2504839 46 9 46 L 41 46 C 43.749516 46 46 43.749516 46 41 L 46 9 C 46 6.2504839 43.749516 4 41 4 L 9 4 z M 9 6 L 41 6 C 42.668484 6 44 7.3315161 44 9 L 44 41 C 44 42.668484 42.668484 44 41 44 L 9 44 C 7.3315161 44 6 42.668484 6 41 L 6 9 C 6 7.3315161 7.3315161 6 9 6 z M 18.076172 18 C 17.371172 18.097 16.5665 18.483453 16.0625 19.064453 C 15.5585 19.644453 15.255031 20.323 15.457031 21 C 16.262031 21 16.968656 20.61225 17.472656 20.03125 C 17.875656 19.54725 18.177172 18.774 18.076172 18 z M 26.800781 18 L 25 18.5 L 25 21 L 23.5 21 L 23.5 22.375 L 25 22.375 L 25 27.599609 C 25 28.799609 25.199219 29.599219 25.699219 30.199219 C 26.199219 30.699219 26.899219 31 27.699219 31 C 28.399219 31 29.000781 30.900781 29.300781 30.800781 L 29.199219 29.400391 C 28.999219 29.500391 28.699219 29.5 28.199219 29.5 C 27.099219 29.5 26.800781 28.799609 26.800781 27.599609 L 26.800781 22.375 L 29.400391 22.375 L 29.400391 21 L 26.800781 21 L 26.800781 18 z M 13.341797 21 C 12.333797 21 11.326094 21.599609 10.621094 22.599609 C 9.6140938 24.099609 9.8151719 26.899219 11.326172 29.199219 C 11.830172 30.099219 12.535969 31 13.542969 31 C 14.449969 31.1 14.650375 30.5 15.859375 30.5 C 16.967375 30.4 17.169172 31 18.076172 31 C 18.983172 31 19.788578 29.899609 20.392578 29.099609 C 20.695578 28.499609 20.896828 28.2 21.298828 27.5 C 19.082828 26.6 18.680484 23.500781 20.896484 22.300781 C 20.191484 21.500781 19.285906 21 18.378906 21 C 17.170906 21 16.665375 21.599609 15.859375 21.599609 C 15.053375 21.599609 14.349797 21 13.341797 21 z M 30.625 21 L 34.414062 31 L 36.109375 31 L 40 21 L 38.105469 21 L 36.210938 26.599609 C 35.911937 27.599609 35.611109 28.399219 35.412109 29.199219 L 35.3125 29.199219 C 35.1125 28.299219 34.814625 27.499609 34.515625 26.599609 L 32.519531 21 L 30.625 21 z"/></svg>