<?xml version="1.0"?><svg xmlns="http://www.w3.org/2000/svg"  viewBox="0 0 50 50" width="20px" height="20px">    <path d="M25,2C12.318,2,2,12.318,2,25s10.318,23,23,23s23-10.318,23-23S37.682,2,25,2z M11.833,15.554 c-0.193,0.288-0.511,0.444-0.834,0.444c-0.189,0-0.382-0.054-0.552-0.167c-0.459-0.305-0.585-0.922-0.282-1.382 c0.085-0.128,2.12-3.157,6.313-4.75c2.18-0.828,4.487-0.694,4.586-0.688c0.55,0.035,0.968,0.509,0.934,1.06 c-0.033,0.55-0.488,0.953-1.059,0.937c-0.019,0-1.986-0.108-3.75,0.561C13.624,12.923,11.851,15.527,11.833,15.554z M14,22 c0-1.657,1.343-3,3-3s3,1.343,3,3s-1.343,3-3,3S14,23.657,14,22z M34.832,36.555c-0.306,0.459-0.926,0.582-1.387,0.277 C33.438,36.827,32.132,36,30,36c-1.442,0-2.45,0.454-3.727,1.029C24.326,37.907,21.901,39,17,39c-0.553,0-1-0.447-1-1s0.447-1,1-1 c4.472,0,6.586-0.953,8.452-1.794C26.828,34.586,28.128,34,30,34c2.771,0,4.483,1.12,4.555,1.168 C35.015,35.475,35.139,36.095,34.832,36.555z M33,25c-1.657,0-3-1.343-3-3s1.343-3,3-3s3,1.343,3,3S34.657,25,33,25z M39.977,16.217 C39.873,16.683,39.459,17,39.001,17c-0.072,0-0.145-0.008-0.218-0.023c-6.777-1.506-10.065-3.006-10.202-3.068 c-0.501-0.231-0.72-0.825-0.489-1.326c0.232-0.501,0.827-0.721,1.326-0.49c0.032,0.015,3.261,1.479,9.799,2.932 C39.756,15.144,40.096,15.678,39.977,16.217z"/></svg>