<?xml version="1.0" encoding="utf-8"?>
<!-- Generator: Adobe Illustrator 23.0.3, SVG Export Plug-In . SVG Version: 6.00 Build 0)  -->
<svg version="1.1" id="layer" xmlns="http://www.w3.org/2000/svg" xmlns:xlink="http://www.w3.org/1999/xlink" x="0px" y="0px"
	 viewBox="0 0 36 36" width="36px" height="36px" enable-background="new 0 0 36 36" xml:space="preserve">
<path fill="#EFEFEF" d="M4.167,27.623c0-6.917-3.583-11.667-3.583-15S2.5,2.29,17.833,2.29s17.583,9.417,17.583,13.083
	C35.417,32.54,4.167,39.873,4.167,27.623z"/>
<g>
	<g>
		<rect x="10.541" y="2.674" transform="matrix(0.7071 -0.7071 0.7071 0.7071 1.136 9.0903)" fill="#A4AFC1" width="2" height="1"/>
	</g>
	<g>
		
			<rect x="6.475" y="6.739" transform="matrix(0.7071 -0.7071 0.7071 0.7071 -2.9297 7.4057)" fill="#A4AFC1" width="2" height="1"/>
	</g>
	<g>
		<rect x="6.975" y="1.997" transform="matrix(0.7071 -0.7071 0.7071 0.7071 0.07 6.1632)" fill="#A4AFC1" width="1" height="2"/>
	</g>
</g>
<g>
	<path fill="#A4AFC1" d="M25.25,27.669c-0.827,0-1.5-0.673-1.5-1.5s0.673-1.5,1.5-1.5s1.5,0.673,1.5,1.5S26.077,27.669,25.25,27.669
		z M25.25,25.669c-0.275,0-0.5,0.225-0.5,0.5s0.225,0.5,0.5,0.5s0.5-0.225,0.5-0.5S25.525,25.669,25.25,25.669z"/>
</g>
<polygon fill="#2FDF84" points="18.171,29.25 25.25,18 18.171,6.75 11.75,6.75 18.831,18 11.75,29.25 "/>
<polygon fill="#00B871" points="14,6.75 11.75,6.75 18.831,18 11.75,29.25 14,29.25 21.081,18 "/>
<g>
	<path d="M18.171,30H11.75c-0.273,0-0.524-0.148-0.656-0.388s-0.124-0.53,0.021-0.762L17.945,18l-6.83-10.851
		c-0.146-0.231-0.153-0.522-0.021-0.762S11.477,6,11.75,6h6.421c0.258,0,0.497,0.133,0.635,0.351l7.079,11.25
		c0.153,0.244,0.153,0.555,0,0.799l-7.079,11.25C18.668,29.867,18.429,30,18.171,30z M13.108,28.5h4.648L24.364,18L17.757,7.5
		h-4.648l6.357,10.101c0.153,0.244,0.153,0.555,0,0.799L13.108,28.5z"/>
</g>
</svg>