<?xml version="1.0"?><svg xmlns="http://www.w3.org/2000/svg"  viewBox="0 0 50 50" width="50px" height="50px" fill="white">    <path d="M 25 2 C 13.413593 2 4 11.413593 4 23 C 4 31.602252 9.1802923 39.010728 16.599609 42.251953 A 1.0001 1.0001 0 1 0 17.400391 40.419922 C 10.691708 37.489147 6 30.799748 6 23 C 6 12.494407 14.494407 4 25 4 C 35.505593 4 44 12.494407 44 23 C 44 30.799748 39.308292 37.489147 32.599609 40.419922 A 1.0001 1.0001 0 1 0 33.400391 42.251953 C 40.819708 39.010728 46 31.602252 46 23 C 46 11.413593 36.586407 2 25 2 z M 25 7 C 16.178937 7 9 14.178937 9 23 C 9 28.688004 11.979987 33.699191 16.464844 36.535156 A 1.0008024 1.0008024 0 0 0 17.535156 34.84375 C 13.610013 32.361715 11 27.989996 11 23 C 11 15.261063 17.261063 9 25 9 C 32.738937 9 39 15.261063 39 23 C 39 27.989996 36.389987 32.361715 32.464844 34.84375 A 1.0008024 1.0008024 0 0 0 33.535156 36.535156 C 38.020013 33.699191 41 28.688004 41 23 C 41 14.178937 33.821063 7 25 7 z M 25 18 A 5 5 0 0 0 20 23 A 5 5 0 0 0 25 28 A 5 5 0 0 0 30 23 A 5 5 0 0 0 25 18 z M 25 30 C 22.243 30 20 32.527719 20 35.636719 C 20 39.570719 21.322328 45.265156 21.361328 45.410156 C 21.528328 46.652156 22.504 49 25 49 C 27.496 49 28.470141 46.651859 28.619141 45.505859 C 28.676141 45.264859 30 39.569719 30 35.636719 C 30 32.527719 27.757 30 25 30 z"/></svg>