<?xml version="1.0"?><svg xmlns="http://www.w3.org/2000/svg"  viewBox="0 0 50 50" width="50px" height="50px" fill="white">    <path d="M 5.9160156 0.984375 C 5.3722656 1.0083984 4.7992188 1.1132812 4.1992188 1.3007812 C 2.4992187 1.8007812 1.2996094 2.7996094 0.59960938 4.0996094 C -0.10039062 5.3996094 -0.19921875 6.8996094 0.30078125 8.5996094 L 2.5 8 C 2.2 7 2.1007813 6.1 2.3007812 5.5 C 2.5007813 4.4 3.2996094 3.5992187 4.5996094 3.1992188 C 5.6996094 2.8992187 6.7007812 3.0003906 7.3007812 3.4003906 C 7.9007813 3.8003906 8.2996094 4.3996094 8.5996094 5.0996094 C 8.7996094 5.6996094 8.7996094 6.3003906 8.5996094 6.9003906 C 8.4996094 7.3003906 8.2996094 7.6 8.0996094 8 L 7.4003906 9.1992188 C 6.7003906 10.299219 6.4007812 11.299609 6.3007812 12.099609 C 6.2007813 12.899609 6.3992188 13.9 6.6992188 15 L 8.6992188 14.300781 C 8.3992188 13.300781 8.3003906 12.500391 8.4003906 11.900391 C 8.5003906 11.300391 8.8003906 10.599609 9.4003906 9.5996094 C 10.200391 8.2996094 10.700391 7.2992188 10.900391 6.6992188 C 11.100391 6.0992187 11.000781 5.3 10.800781 4.5 C 10.400781 3.1 9.6003906 2.1 8.4003906 1.5 C 7.6503906 1.125 6.8222656 0.94433594 5.9160156 0.984375 z M 25 3 C 20.812069 3 16.88071 4.1250502 13.498047 6.0839844 A 1.0002936 1.0002936 0 0 0 14.501953 7.8144531 C 17.59129 6.0253873 21.169931 5 25 5 C 36.609534 5 46 14.390466 46 26 C 46 37.609534 36.609534 47 25 47 C 13.390466 47 4 37.609534 4 26 C 4 23.662566 4.386974 21.419457 5.0917969 19.318359 A 1.0002578 1.0002578 0 0 0 3.1953125 18.681641 C 2.4241354 20.980543 2 23.441434 2 26 C 2 38.690466 12.309534 49 25 49 C 37.690466 49 48 38.690466 48 26 C 48 13.309534 37.690466 3 25 3 z M 19 10 C 16.265217 10 14.476201 11.801056 13.408203 13.189453 A 1.0001 1.0001 0 1 0 14.992188 14.410156 C 15.924189 13.198553 17.134783 12 19 12 C 20.666667 12 21.427734 12.740234 21.427734 12.740234 A 1.000338 1.000338 0 0 0 22.773438 11.259766 C 22.773437 11.259766 21.333333 10 19 10 z M 31 11 C 28.666667 11 27.226562 12.259766 27.226562 12.259766 A 1.000338 1.000338 0 1 0 28.572266 13.740234 C 28.572266 13.740234 29.333333 13 31 13 C 32.865217 13 34.07581 14.198553 35.007812 15.410156 A 1.0001 1.0001 0 1 0 36.591797 14.189453 C 35.523799 12.801056 33.734783 11 31 11 z M 9.5996094 16.300781 L 7.1992188 17 L 7.9003906 19.5 L 10.300781 18.800781 L 9.5996094 16.300781 z M 18 17 A 2.5 4 0 0 0 15.5 21 A 2.5 4 0 0 0 18 25 A 2.5 4 0 0 0 20.5 21 A 2.5 4 0 0 0 18 17 z M 32 17 A 2.5 4 0 0 0 29.5 21 A 2.5 4 0 0 0 32 25 A 2.5 4 0 0 0 34.5 21 A 2.5 4 0 0 0 32 17 z M 33 33 C 26.97906 33 23.015399 34.556885 20.564453 36.164062 C 18.113508 37.77124 17.123047 39.517578 17.123047 39.517578 A 1.0008884 1.0008884 0 1 0 18.876953 40.482422 C 18.876953 40.482422 19.536102 39.22876 21.660156 37.835938 C 23.784211 36.443115 27.32094 35 33 35 A 1.0001 1.0001 0 1 0 33 33 z"/></svg>