<svg xmlns="http://www.w3.org/2000/svg"  viewBox="0 0 50 50" width="100%" height="100%"><path d="M 8.8125 2 C 8.335938 2.089844 7.992188 2.511719 8 3 L 8 11 C 8 11.03125 8 11.0625 8 11.09375 L 8 36 C 8 37.65625 6.65625 39 5 39 C 4.96875 39 4.9375 39 4.90625 39 C 3.296875 38.949219 2 37.621094 2 36 L 2 14 L 6 14 L 6 12 L 1 12 C 0.449219 12 0 12.449219 0 13 L 0 36 C 0 38.628906 2.074219 40.785156 4.65625 40.96875 C 4.667969 40.96875 4.675781 40.96875 4.6875 40.96875 C 4.707031 40.980469 4.730469 40.992188 4.75 41 C 4.835938 41.003906 4.914063 41 5 41 L 25 41 C 25.359375 41.003906 25.695313 40.816406 25.878906 40.503906 C 26.058594 40.191406 26.058594 39.808594 25.878906 39.496094 C 25.695313 39.183594 25.359375 38.996094 25 39 L 8.96875 39 C 9.609375 38.160156 10 37.128906 10 36 L 10 11.15625 C 10.003906 11.105469 10.003906 11.050781 10 11 L 10 4 L 44 4 L 44 25 C 43.996094 25.359375 44.183594 25.695313 44.496094 25.878906 C 44.808594 26.058594 45.191406 26.058594 45.503906 25.878906 C 45.816406 25.695313 46.003906 25.359375 46 25 L 46 3 C 46 2.449219 45.550781 2 45 2 L 9 2 C 8.96875 2 8.9375 2 8.90625 2 C 8.875 2 8.84375 2 8.8125 2 Z M 16 10 L 16 12 L 38 12 L 38 10 Z M 16 14 L 16 16 L 38 16 L 38 14 Z M 16 22 L 16 24 L 26 24 L 26 22 Z M 28 22 L 28 24 L 38 24 L 38 22 Z M 16 26 L 16 28 L 26 28 L 26 26 Z M 28 26 L 28 28 L 30 28 L 33 26 Z M 39 26.90625 C 32.953125 26.90625 28 31.859375 28 37.90625 C 28 43.953125 32.953125 48.90625 39 48.90625 C 45.046875 48.90625 50 43.953125 50 37.90625 C 50 31.859375 45.046875 26.90625 39 26.90625 Z M 39 28.90625 C 41.113281 28.90625 43.054688 29.648438 44.59375 30.875 L 31.96875 43.5 C 30.742188 41.960938 30 40.019531 30 37.90625 C 30 32.953125 34.046875 28.90625 39 28.90625 Z M 16 30 L 16 32 L 26 32 L 26 30 Z M 46.03125 32.28125 C 47.269531 33.824219 48 35.785156 48 37.90625 C 48 42.859375 43.953125 46.90625 39 46.90625 C 36.878906 46.90625 34.917969 46.175781 33.375 44.9375 Z M 16 34 L 16 36 L 26 36 L 26 34 Z"/></svg>